<?xml version="1.0" standalone="no"?><svg xmlns="http://www.w3.org/2000/svg" viewBox="0 0 1440 320"><path fill="#0099ff" fill-opacity="1" d="M0,32L30,42.7C60,53,120,75,180,112C240,149,300,203,360,192C420,181,480,107,540,85.3C600,64,660,96,720,128C780,160,840,192,900,192C960,192,1020,160,1080,138.7C1140,117,1200,107,1260,138.7C1320,171,1380,245,1410,282.7L1440,320L1440,0L1410,0C1380,0,1320,0,1260,0C1200,0,1140,0,1080,0C1020,0,960,0,900,0C840,0,780,0,720,0C660,0,600,0,540,0C480,0,420,0,360,0C300,0,240,0,180,0C120,0,60,0,30,0L0,0Z"></path></svg>